<?xml version="1.0" standalone="no"?>
<!DOCTYPE svg PUBLIC "-//W3C//DTD SVG 20010904//EN"
 "http://www.w3.org/TR/2001/REC-SVG-20010904/DTD/svg10.dtd">
<svg version="1.0" xmlns="http://www.w3.org/2000/svg"
 width="1154.000000pt" height="755.000000pt" viewBox="0 0 1154.000000 755.000000"
 preserveAspectRatio="xMidYMid meet">
<metadata>
Created by potrace 1.16, written by Peter Selinger 2001-2019
</metadata>
<g transform="translate(0.000000,755.000000) scale(0.100000,-0.100000)"
fill="#000000" stroke="none">
<path d="M4866 5395 c-85 -35 -123 -70 -164 -155 l-27 -55 0 -510 c0 -464 2
-515 18 -561 51 -146 207 -225 388 -195 204 33 278 156 279 459 l0 102 -110 0
-110 0 0 -125 c0 -144 -11 -184 -62 -215 -39 -23 -66 -25 -112 -6 -67 28 -67
30 -64 545 3 449 3 460 24 488 42 56 146 57 186 0 20 -28 23 -47 27 -144 l3
-113 109 0 109 0 0 78 c0 100 -15 201 -37 249 -25 54 -79 121 -115 139 -98 51
-245 59 -342 19z"/>
<path d="M6686 5396 c-116 -49 -174 -126 -196 -260 -16 -99 -13 -877 4 -957
33 -152 117 -236 264 -260 142 -23 280 21 352 113 69 87 72 108 68 663 -3 478
-4 491 -25 537 -30 66 -95 132 -156 159 -40 18 -75 24 -152 26 -88 3 -107 1
-159 -21z m226 -215 l33 -29 3 -474 c1 -364 -1 -479 -11 -498 -29 -58 -136
-75 -185 -29 -40 36 -43 79 -40 537 2 357 6 442 17 465 33 63 128 77 183 28z"/>
<path d="M5640 4665 l0 -735 305 0 305 0 0 105 0 105 -190 0 -190 0 0 630 0
630 -115 0 -115 0 0 -735z"/>
<path d="M7470 4803 c0 -632 1 -648 48 -738 55 -108 173 -163 328 -153 96 6
194 53 241 116 68 90 67 81 71 760 l3 612 -111 0 -110 0 0 -593 c0 -557 -1
-594 -19 -627 -13 -25 -30 -39 -60 -50 -57 -20 -116 0 -142 50 -18 33 -19 70
-19 627 l0 593 -115 0 -115 0 0 -597z"/>
<path d="M8460 4665 l0 -737 238 4 c277 5 308 12 382 88 86 89 84 79 88 624 3
456 2 483 -17 545 -25 81 -74 141 -145 179 -51 27 -51 27 -298 30 l-248 3 0
-736z m427 517 c11 -6 28 -27 37 -46 14 -30 16 -88 16 -471 0 -367 -2 -441
-15 -465 -26 -50 -51 -60 -147 -60 l-88 0 0 531 0 532 88 -5 c49 -3 97 -10
109 -16z"/>
<path d="M5977 3709 c-121 -18 -207 -82 -249 -187 -23 -57 -23 -59 -23 -557 0
-375 3 -510 13 -542 20 -66 73 -135 131 -170 142 -86 381 -57 470 56 79 101
81 113 81 652 0 437 -1 471 -20 531 -43 139 -132 206 -295 221 -27 2 -76 1
-108 -4z m155 -234 c14 -14 28 -39 32 -56 3 -18 6 -230 6 -473 0 -410 -1 -444
-19 -476 -40 -77 -165 -77 -203 0 -16 32 -18 77 -18 487 0 264 4 462 10 477
19 50 45 66 109 66 49 0 62 -4 83 -25z"/>
<path d="M8752 3709 c-171 -29 -262 -155 -262 -364 0 -179 40 -253 254 -468
158 -158 185 -201 193 -301 7 -78 -14 -127 -62 -150 -42 -20 -68 -20 -110 0
-47 22 -65 66 -65 158 l0 76 -110 0 -110 0 0 -75 c0 -223 86 -342 274 -376 74
-14 193 -1 245 26 110 56 171 175 171 335 0 173 -43 254 -239 452 -175 177
-211 233 -211 334 0 71 17 117 51 135 26 14 101 14 127 0 30 -16 52 -73 52
-135 l0 -56 111 0 112 0 -6 83 c-14 195 -104 302 -273 327 -77 11 -70 11 -142
-1z"/>
<path d="M4670 2960 l0 -740 100 0 100 0 0 538 c0 297 4 530 9 522 5 -8 71
-250 147 -537 l138 -523 118 0 118 0 0 740 0 740 -100 0 -100 0 -2 -447 -3
-448 -103 390 c-57 215 -111 416 -120 448 l-15 57 -144 0 -143 0 0 -740z"/>
<path d="M6630 3595 l0 -105 120 0 120 0 0 -635 0 -635 115 0 115 0 0 635 0
635 125 0 125 0 0 105 0 105 -360 0 -360 0 0 -105z"/>
<path d="M7590 2960 l0 -740 320 0 320 0 0 105 0 105 -205 0 -205 0 0 215 0
215 160 0 160 0 0 105 0 105 -160 0 -160 0 0 210 0 210 205 0 205 0 0 105 0
105 -320 0 -320 0 0 -740z"/>
<path d="M2250 1925 l0 -45 3465 0 3465 0 0 45 0 45 -3465 0 -3465 0 0 -45z"/>
</g>
</svg>
